<svg id="Capa_1" data-name="Capa 1" xmlns="http://www.w3.org/2000/svg" viewBox="0 0 1586 257.04"><defs><style>.cls-1{fill:#aa3570;}.cls-2{fill:#fff;}</style></defs><title>Logo InitGrammers Colores - Horizontal</title><rect class="cls-1" x="11.67" y="9.3" width="237.16" height="237.16" rx="28.35" ry="28.35"/><rect class="cls-2" x="66.4" y="82.27" width="18.24" height="123.14"/><path class="cls-2" d="M194.1,50.34H146.21a36.47,36.47,0,0,0-22.56,65.15,29.65,29.65,0,0,0-3.15,34c.11.2.22.39.34.58a30.82,30.82,0,0,0-16.58,18.87,30.56,30.56,0,0,0-1.35,7.94c0,.38,0,.78,0,1.16v0c0,.39,0,.79,0,1.18a30.75,30.75,0,0,0,24.49,29c.52.11,1.06.2,1.59.28a100.25,100.25,0,0,0,34.44,0c.53-.08,1.07-.18,1.6-.28a30.89,30.89,0,0,0,23.14-21,30.55,30.55,0,0,0,1.34-7.93c0-.4,0-.79,0-1.19s0-.79,0-1.18a30.5,30.5,0,0,0-6.85-18.22,30.94,30.94,0,0,0-11.08-8.59,30.39,30.39,0,0,0-6.62-2.17l-.8-.15-.67-.11a99.34,99.34,0,0,0-17.28-1.51,11.4,11.4,0,0,1,0-22.8,36.47,36.47,0,0,0,36.45-34.79v-1.7h0a36.35,36.35,0,0,0-4.88-18.24h16.29ZM130.45,165.92l0,0h0l.6-.11.77-.14a82,82,0,0,1,28.75,0l.73.13.64.12h0s0,0,0,0h0a12.54,12.54,0,0,1,0,24.24h0s0,0,0,0l-.67.12-.7.13a82,82,0,0,1-14.38,1.27,81.07,81.07,0,0,1-14.45-1.28l-.66-.13-.63-.11,0,0a12.54,12.54,0,0,1,0-24.24Zm15.76-60.85a18.25,18.25,0,1,1,18.24-18.25A18.25,18.25,0,0,1,146.21,105.07Z"/><rect class="cls-2" x="66.4" y="45.78" width="18.24" height="18.24"/><path class="cls-1" d="M279.38,205.52V45.59H310V205.52Z"/><path class="cls-1" d="M345.84,205.52V90.34h25.25v12.4c10.19-7.09,21.93-14.62,35.45-14.62,23,0,34.11,15.06,34.11,38.54v78.86H413.18V130.65c0-15.5-4.87-20.38-14.18-20.38-12,0-21,6.87-25.69,12.19v83.06Z"/><path class="cls-1" d="M471.9,69.07V43.38h27.47V69.07Zm27.47,136.45H471.9V90.34h27.47Z"/><path class="cls-1" d="M535,90.34V52.24h27.47v38.1H585.1v22.15H562.51v65.12c0,6.2,3.1,8,10,8,4.21,0,8.65-1.33,12.63-2.22V206c-7.53.89-14.18,1.77-21.7,1.77C543,207.73,535,197.55,535,181.15V112.49H519.09V90.34Z"/><path class="cls-1" d="M693.21,91.67c-7.31-16-16.17-22.6-32.12-22.6-22.59,0-33.67,22.6-33.67,58,0,33.67,12.63,54.93,33.89,54.93,19.94,0,32.79-13.29,33.45-31.67H664.41v-25.7h59.81v80.85H702.07V189.13c-12.85,14.18-24.81,18.6-41.64,18.6-43.42,0-63.58-34.55-63.58-79.74,0-40.76,15.51-84.61,66.68-84.61,31.9,0,50.5,17.27,58,40.75Z"/><path class="cls-1" d="M750.38,205.52V90.34h25.25v19.71h.45c6.64-13.73,15.94-21.48,32.33-21.93v29a31.34,31.34,0,0,0-4.87-.22c-13.73,0-25.7,15.73-25.7,18.6v70Z"/><path class="cls-1" d="M884.63,205.52l-1.77-10c-11.08,7.53-21.49,12.18-35.89,12.18-20.82,0-31.23-14.83-31.23-30.56,0-26.14,21.27-39.88,66-45.19v-9.74c0-8.87-7.09-13.74-16.84-13.74-12.84,0-19.93,6.87-25.25,14.17l-17.72-13.51c7.09-12.18,26.14-21.48,43-21,31,.67,44.31,12,44.31,46.52v54.27c0,5.76.44,11.52,2.21,16.61Zm-2.88-55.15c-18.39,3.54-38.54,7.31-38.54,23.48,0,8.64,5.53,13.51,13.29,13.51,8.64,0,19.49-7.31,25.25-12.19Z"/><path class="cls-1" d="M936.7,205.52V90.34h25v12.4c10.41-9.52,18.82-14.62,34.55-14.62,12,0,23.26,5.76,28.35,16.83,9.53-9.52,20.61-16.83,39.66-16.83,12,0,28.35,7.09,28.35,34.55v82.85h-27.47V125.11c0-9.3-3.76-14.4-13.73-14.84-7.09,0-16.61,6.43-23,12.4v82.85h-27.46V125.11c0-9.3-3.77-14.4-13.74-14.84-7.09,0-16.61,6.43-23,12.4v82.85Z"/><path class="cls-1" d="M1121.24,205.52V90.34h25v12.4c10.41-9.52,18.83-14.62,34.56-14.62,12,0,23.26,5.76,28.35,16.83,9.53-9.52,20.6-16.83,39.65-16.83,12,0,28.35,7.09,28.35,34.55v82.85h-27.47V125.11c0-9.3-3.76-14.4-13.73-14.84-7.09,0-16.61,6.43-23,12.4v82.85h-27.47V125.11c0-9.3-3.76-14.4-13.74-14.84-7.08,0-16.61,6.43-23,12.4v82.85Z"/><path class="cls-1" d="M1324.39,152.36c.45,23.92,11.08,33.23,23.93,33.23s18.82-5.77,25.69-13.74L1394,184.26c-10.64,16.38-26.14,23.47-48.29,23.47-29.91,0-48.73-23.25-48.73-59.8s18.82-59.81,50.06-59.81c30.13-.22,47,25.25,47,52.94v11.3Zm44.31-18.61c-.45-16-8.87-25.25-22.15-25.25s-21.71,9.3-22.16,25.25Z"/><path class="cls-1" d="M1414.79,205.52V90.34H1440v19.71h.44c6.65-13.73,16-21.48,32.34-21.93v29a31.34,31.34,0,0,0-4.87-.22c-13.73,0-25.69,15.73-25.69,18.6v70Z"/><path class="cls-1" d="M1546.37,120.69c-5.54-6-12.84-12.19-21.48-12.19-10.63,0-15.51,4.43-15.51,11.3,0,19.71,57.6,11.3,57.6,53.38,0,23.92-18.17,34.55-42.31,34.55-18.39,0-33.45-8.19-43.64-23.25l18.39-13.74c6.42,8.86,15.06,16.62,26.8,16.62,9.74,0,16.39-5.32,16.39-13.07,0-19.72-57.59-12.63-57.59-52.72,0-21.49,18.16-33.45,38.09-33.45,15.29,0,30.57,5.76,40.55,17.5Z"/></svg>